<?xml version="1.0" encoding="iso-8859-1"?>
<!-- Generator: Adobe Illustrator 19.0.0, SVG Export Plug-In . SVG Version: 6.00 Build 0)  -->
<svg xmlns="http://www.w3.org/2000/svg" xmlns:xlink="http://www.w3.org/1999/xlink" version="1.1" id="Capa_1" x="0px" y="0px" viewBox="0 0 480 480" style="enable-background:new 0 0 480 480;" xml:space="preserve" width="512px" height="512px">

<g>
	<g>
		<path d="M416.173,262.104C406.742,255.51,395.508,251.982,384,252c-11.453-0.007-22.628,3.522-32,10.104    c-25.348-17.721-60.262-11.538-77.983,13.809s-11.538,60.262,13.809,77.983c19.27,13.472,44.903,13.472,64.173,0    c25.348,17.721,60.262,11.538,77.983-13.809C447.704,314.739,441.521,279.825,416.173,262.104z M340,342.552    c-19.032,11.103-43.461,4.676-54.564-14.356c-3.576-6.129-5.452-13.1-5.436-20.196c-0.051-22.034,17.77-39.937,39.804-39.988    c7.096-0.016,14.067,1.86,20.196,5.436C323.968,293.693,323.968,322.307,340,342.552z M384,348c-22.091,0-40-17.909-40-40    c0-22.091,17.909-40,40-40c22.091,0,40,17.909,40,40C423.974,330.08,406.08,347.974,384,348z" fill="#cfcfcf"/>
	</g>
</g>

</svg>
