<?xml version="1.0" encoding="UTF-8" standalone="no"?>
<svg
   xmlns:dc="http://purl.org/dc/elements/1.1/"
   xmlns:cc="http://creativecommons.org/ns#"
   xmlns:rdf="http://www.w3.org/1999/02/22-rdf-syntax-ns#"
   xmlns:svg="http://www.w3.org/2000/svg"
   xmlns="http://www.w3.org/2000/svg"
   viewBox="0 0 400 400"
   height="400"
   width="400"
   xml:space="preserve"
   id="svg2"
   version="1.1"><metadata
     id="metadata8"><rdf:RDF><cc:Work
         rdf:about=""><dc:format>image/svg+xml</dc:format><dc:type
           rdf:resource="http://purl.org/dc/dcmitype/StillImage" /></cc:Work></rdf:RDF></metadata><defs
     id="defs6"><clipPath
       id="clipPath18"
       clipPathUnits="userSpaceOnUse"><path
         id="path16"
         d="M 0,300 H 300 V 0 H 0 Z" /></clipPath></defs><g
     transform="matrix(1.3333333,0,0,-1.3333333,0,400)"
     id="g10"><g
       id="g12"><g
         clip-path="url(#clipPath18)"
         id="g14"><g
           transform="translate(205.5,163)"
           id="g20"><path
             id="path22"
             style="fill:#ef7d8a;fill-opacity:1;fill-rule:nonzero;stroke:none"
             d="M 0,0 H 14 V 8 H 0 c -11.028,0 -20,-8.972 -20,-20 0,-11.028 8.972,-20 20,-20 h 14 v 16 H 6 v -8 H 0 c -6.617,0 -12,5.383 -12,12 0,6.617 5.383,12 12,12 m -77,-6 h -8 v -26 h 8 v 6 c 0,6.617 5.383,12 12,12 v 8 c -4.505,0 -8.653,-1.515 -12,-4.038 z m 44,-2 c 0,4.411 -3.589,8 -8,8 h -10 v -16 h 10 c 4.411,0 8,3.589 8,8 m 8,0 c 0,-8.822 -7.178,-16 -16,-16 h -10 v -8 h -8 V 8 h 18 c 8.822,0 16,-7.178 16,-16 m -74,-9 c 0,-4.963 -4.037,-9 -9,-9 -4.963,0 -9,4.037 -9,9 v 11 h -8 v -12 h 0.051 c 0.522,-8.908 7.913,-16 16.949,-16 9.036,0 16.427,7.092 16.949,16 H -91 v 12 h -8 z m 0,17 h 8 v 8 h -8 z m -26,8 h 8 V 0 h -8 z" /></g></g></g></g></svg>